<?xml version="1.0" encoding="UTF-8"?>
<svg width="600" height="600" version="1.1" xmlns="http://www.w3.org/2000/svg">
 <path d="m590 300c0 160.08-129.92 290-290 290s-290-129.92-290-290 129.92-290 290-290 290 129.92 290 290" fill="#b1d600"/>
 <path d="m546.5 300c0 136.11-110.39 246.5-246.5 246.5s-246.5-110.39-246.5-246.5 110.39-246.5 246.5-246.5 246.5 110.39 246.5 246.5" fill="#081c19"/>
 <path d="m224.4 387.96c-6.3799 0-11.407 2.3207-15.273 6.1873-5.7999 5.7999-5.6054 12.759-5.6054 22.426 0 9.6665-0.19453 16.819 5.6054 22.426 3.8666 4.0599 8.8934 6.1873 15.273 6.1873 6.5732 0 11.406-2.3207 15.273-6.1873 5.6066-5.7999 5.6073-12.759 5.6073-22.426 0-9.6665 0.19256-16.819-5.6073-22.426-4.0599-4.0599-8.8934-6.1873-15.273-6.1873zm212.47 0c-12.18 0-19.72 6.9603-19.72 17.013 0 4.6399 1.3539 8.3128 4.0605 11.019 2.7066 2.5133 6.1862 3.8672 11.019 4.6405l6.7656 0.96677c2.7066 0.38666 3.8674 0.96496 5.0274 1.9316s1.7402 2.7072 1.7402 4.6405c0 4.4466-3.4794 6.9608-10.053 6.9608-5.4132 0-10.246-1.1606-13.726-4.6405l-7.1542 7.1542c5.6066 5.6066 12.181 7.3456 20.686 7.3456 11.793 0 20.878-5.9936 21.071-17.013 0-5.0266-1.352-9.0861-4.4452-11.986-2.5133-2.1266-5.6081-3.4805-10.828-4.2538l-6.5721-0.96678c-2.32-0.19333-4.0607-1.1583-5.2207-2.1249-1.16-1.16-1.7402-2.7072-1.7402-4.0605 0-3.8666 2.9011-7.1542 8.701-7.1542 3.6733 0 8.1195 0.58051 11.599 3.8672l6.9589-6.7675c-4.8332-4.6399-10.438-6.5721-18.171-6.5721zm-293.86 0.58007v56.066h11.019v-23.393h19.14v23.393h11.019v-56.066h-11.019v22.813h-19.14v-22.813zm115.8 0v9.6659h14.693v46.399h11.019v-46.399h14.693v-9.6659h-40.406zm57.419 0v56.066h37.313v-9.8592h-26.293v-13.533h22.428v-9.8612h-22.428v-13.146h26.293v-9.6659h-37.313zm56.066 0v56.066h34.026v-9.8592h-23.008v-46.206h-11.019zm-147.9 9.2791c2.9 0 5.4142 1.1604 6.9608 2.9003 2.32 2.5133 2.9003 5.0268 2.707 15.66 0 10.633-0.58035 13.34-2.707 15.66-1.5466 1.9333-3.8676 3.0937-6.9608 3.0937s-5.6056-1.3537-7.1522-3.0937c-2.1266-2.32-2.707-4.8334-2.707-15.66 0-10.633 0.58036-13.34 2.707-15.66 1.5466-1.74 4.059-2.9003 7.1522-2.9003z" fill="#b1d600"/>
 <path d="m106.09 200.63v156.6h68.055c26.1 0 47.365-21.074 47.365-46.98 0-17.207-8.8922-29.386-20.299-36.152-0.19334-0.19333-0.19334-0.77344 0-0.77344 5.4133-6.1867 9.2793-16.24 9.2793-25.326 0-25.907-21.267-47.174-47.367-47.174h-41.18v-0.19336h-15.854zm283.43 0v156.6h68.053c26.1 0 47.367-21.074 47.367-46.98 0-17.207-8.8941-29.386-20.301-36.152-0.19333-0.19333-0.19333-0.77344 0-0.77344 5.4133-6.1867 9.2812-16.24 9.2812-25.326 0-25.907-21.267-47.174-47.367-47.174h-41.18v-0.19336h-15.854zm-100.73 17.787c-3.48 0-6.9614 0.58024-10.441 1.7402-3.48 1.3533-6.5726 2.8988-9.2793 5.2188-2.9 2.32-5.0256 5.2212-6.7656 8.8945-1.74 3.48-2.5137 7.733-2.5137 12.18 0 4.64 0.77364 9.0865 2.3203 13.146 1.5467 4.06 3.8656 8.6999 6.959 13.92-7.9267 4.2533-14.114 9.0866-18.174 14.113-4.2533 5.0267-6.7658 9.6665-7.9258 13.533-1.16 3.8667-1.7402 7.5395-1.7402 10.826 0 5.8 1.3539 11.02 4.2539 16.047 2.9 5.0267 6.7663 8.893 11.986 11.986 5.22 3.0933 11.02 4.6406 17.4 4.6406 5.6066 0 11.6-1.3539 17.787-4.0606s12.179-6.9597 18.172-12.566c4.64 4.64 8.6996 8.1195 11.793 10.439 3.2867 2.32 6.1879 3.8673 8.8945 4.834 2.7067 0.96666 5.4125 1.3535 8.3125 1.3535 5.6067 0 10.44-1.3539 14.113-4.4473 3.6733-2.9 6.3811-6.7662 8.3145-11.213s2.8985-9.0866 3.2852-13.727l-8.3125-0.19336c-0.38667 3.48-1.1603 6.1859-2.3203 8.5059-0.96667 2.1267-2.3205 3.8673-3.8672 4.6406-1.5467 0.96666-3.092 1.3535-4.6387 1.3535-3.48 0-6.9595-1.7407-10.826-5.0274-3.8667-3.48-7.1547-7.1529-10.055-11.406 3.2867-3.48 6.5747-7.9265 9.8613-13.146l3.8652-6.1875c3.6733-5.8 6.3811-9.6663 7.9277-11.793 1.5467-1.9333 3.4788-3.672 5.4121-5.0254 1.9333-1.3533 4.6411-2.3204 7.9277-3.0938v-8.3144h-36.928v8.3144c3.8666 0 6.381 0.96706 7.541 2.9004s1.7402 3.4787 1.7402 4.832c0 4.06-1.3539 8.1197-3.8672 12.373s-5.6059 8.315-8.8926 12.568l-27.646-36.154c7.1533-3.6733 12.565-8.1198 16.238-13.146s5.6074-10.053 5.6074-15.273c0-3.8667-0.96708-7.5396-3.0938-11.213-2.1267-3.6733-5.0259-6.5745-8.8926-8.8945s-8.3132-3.4785-13.533-3.4785zm0.77344 9.4727c2.5133 0 4.8323 0.58026 6.7656 1.9336 1.9333 1.3533 3.2872 3.0921 4.2539 5.2188s1.3535 4.4476 1.3535 6.9609c0 5.0267-1.3539 8.893-4.0605 12.18-2.5133 3.0933-6.1861 6.3794-10.439 9.666-6.7666-9.0867-10.053-17.206-10.053-24.166 0-3.0933 1.1585-5.6058 3.2852-8.1191 2.1266-2.5133 5.2212-3.6738 8.8945-3.6738zm-151.57 4.2539h25.133c8.5067 0 15.467 6.9601 15.467 15.467 0 8.5066-6.9601 15.467-15.467 15.467h-25.133zm283.23 0h25.133c8.5067 0 15.467 6.9601 15.467 15.467 0 8.5066-6.9601 15.467-15.467 15.467h-25.133zm-147.13 49.105 31.514 40.986c-2.9 2.1267-5.9945 4.0607-8.7012 5.4141-3.0933 1.5467-6.3794 2.3203-10.053 2.3203-4.64 0-8.8931-1.3539-12.953-4.2539s-7.348-6.5729-9.668-11.02c-2.5133-4.4467-3.6719-9.0865-3.6719-13.533 0-7.9267 4.6399-14.501 13.533-19.914zm-136.3 13.34h36.348c8.5067 0 15.467 6.9601 15.467 15.467 0 8.5067-6.9601 15.467-15.467 15.467h-36.348zm283.43 0h36.152c8.5067 0 15.467 6.9601 15.467 15.467 0 8.5067-6.9601 15.467-15.467 15.467h-36.152z" fill="#fff"/>
</svg>
